<svg id="American_Express" data-name="American Express" xmlns="http://www.w3.org/2000/svg" width="67.495" height="21.775" viewBox="0 0 67.495 21.775">
  <path id="path3046" d="M3.6,0,.2,7.918H2.414l.628-1.586H6.694l.628,1.586H9.589L6.187,0H3.6ZM4.864,1.843,5.978,4.61H3.751L4.864,1.843Z" transform="translate(-0.2)" fill="#4c303f"/>
  <path id="path3048" d="M142.7,7.911V0l3.152.014,1.829,5.1L149.47,0H152.6V7.918h-1.978V2.079l-2.1,5.832h-1.735l-2.106-5.832V7.911Z" transform="translate(-133.081)" fill="#4c303f"/>
  <path id="path3050" d="M309.4,7.911V0h6.46V1.769H311.4V3.125h4.354V4.793H311.4V6.2h4.455V7.918H309.4Z" transform="translate(-288.529)" fill="#4c303f"/>
  <path id="path3052" d="M422,0V7.918h1.978V5.1h.83l2.376,2.815H429.6L427,5a2.411,2.411,0,0,0,2.174-2.43A2.714,2.714,0,0,0,426.4,0Zm1.978,1.769h2.261a.912.912,0,0,1,.938.83,1,1,0,0,1-.911.83h-2.288V1.762h0Z" transform="translate(-393.528)" fill="#4c303f"/>
  <path id="path3054" d="M542.218,7.911H540.2V0h2.018V7.911Z" transform="translate(-503.749)" fill="#4c303f"/>
  <path id="path3056" d="M588.227,7.911h-.439c-2.113,0-3.389-1.661-3.389-3.922A3.652,3.652,0,0,1,588.328,0h2.187V1.877h-2.268A1.906,1.906,0,0,0,586.4,4.01a2.056,2.056,0,0,0,2.133,2.174h.52l-.83,1.728Z" transform="translate(-544.966)" fill="#4c303f"/>
  <path id="path3058" d="M657.9,0l-3.4,7.918h2.214l.628-1.586h3.652l.628,1.586h2.268L660.481,0Zm1.256,1.843,1.114,2.768h-2.227l1.114-2.768h0Z" transform="translate(-610.334)" fill="#4c303f"/>
  <path id="path3060" d="M796.9,7.911V0h2.518l3.213,4.975V0h1.978V7.918h-2.437l-3.294-5.1v5.1H796.9Z" transform="translate(-743.122)" fill="#4c303f"/>
  <path id="path3062" d="M213.7,213.118V205.2h6.46v1.769H215.7v1.357h4.354v1.667H215.7v1.4h4.455v1.721Z" transform="translate(-199.288 -191.349)" fill="#4c303f"/>
  <path id="path3064" d="M682.4,213.118V205.2h6.46v1.769H684.4v1.357h4.334v1.667H684.4v1.4h4.455v1.721Z" transform="translate(-636.351 -191.349)" fill="#4c303f"/>
  <path id="path3066" d="M312.074,213.118l3.146-3.908L312,205.2h2.491l1.917,2.477,1.924-2.477h2.4l-3.179,3.956,3.152,3.956H318.21l-1.863-2.437-1.816,2.437h-2.457Z" transform="translate(-290.953 -191.349)" fill="#4c303f"/>
  <path id="path3068" d="M444.4,205.2v7.918h2.032v-2.5h2.086c1.762,0,3.1-.938,3.1-2.754s-1.046-2.659-2.842-2.659H444.4Zm2.032,1.789h2.194a.914.914,0,1,1-.007,1.822h-2.187v-1.822Z" transform="translate(-414.416 -191.349)" fill="#4c303f"/>
  <path id="path3072" d="M563.9,205.2v7.918h1.978V210.3h.83l2.376,2.815H571.5L568.9,210.2a2.411,2.411,0,0,0,2.173-2.43,2.712,2.712,0,0,0-2.767-2.565h-4.4Zm1.985,1.769h2.261a.912.912,0,0,1,.938.83,1,1,0,0,1-.911.83h-2.288v-1.667Z" transform="translate(-525.85 -191.349)" fill="#4c303f"/>
  <path id="path3074" d="M788.25,213.211V211.49h3.962c.587,0,.837-.317.837-.661s-.25-.668-.837-.668h-1.789A2.214,2.214,0,0,1,788,207.791c0-1.424.8-2.491,3.105-2.491h3.854l-.83,1.782h-3.335c-.635,0-.83.338-.83.655a.7.7,0,0,0,.729.689h1.876a2.17,2.17,0,0,1,2.484,2.275,2.418,2.418,0,0,1-2.579,2.518h-4.219Z" transform="translate(-734.823 -191.442)" fill="#4c303f"/>
  <path id="path3076" d="M895.85,213.211V211.49h3.962c.587,0,.837-.317.837-.661s-.25-.668-.837-.668h-1.789a2.214,2.214,0,0,1-2.423-2.369c0-1.424.8-2.491,3.105-2.491h3.854l-.83,1.782h-3.334c-.635,0-.83.338-.83.655a.7.7,0,0,0,.729.689h1.876a2.17,2.17,0,0,1,2.484,2.275,2.418,2.418,0,0,1-2.579,2.518h-4.219Z" transform="translate(-835.159 -191.442)" fill="#4c303f"/>
</svg>
