<svg xmlns="http://www.w3.org/2000/svg" width="61.674" height="25.322" viewBox="0 0 61.674 25.322">
  <path id="Apple_Pay" data-name="Apple Pay" d="M11.328,3.265A3.789,3.789,0,0,1,8.292,4.7,4.3,4.3,0,0,1,9.376,1.554,4.528,4.528,0,0,1,12.388,0a4.574,4.574,0,0,1-1.06,3.265m1.048,1.662c-1.675-.1-3.108.952-3.9.952S6.449,4.975,5.123,5a4.948,4.948,0,0,0-4.2,2.554c-1.807,3.108-.47,7.71,1.277,10.24.855,1.253,1.879,2.626,3.229,2.578,1.277-.048,1.783-.831,3.325-.831s2,.831,3.349.807c1.4-.024,2.277-1.253,3.132-2.506a10.988,10.988,0,0,0,1.4-2.879,4.539,4.539,0,0,1-2.723-4.132,4.635,4.635,0,0,1,2.2-3.879,4.774,4.774,0,0,0-3.735-2.024m9.674-3.494V20.215h2.915V13.794H29A5.961,5.961,0,0,0,35.277,7.6,5.891,5.891,0,0,0,29.1,1.434H22.049Zm2.915,2.458h3.361c2.53,0,3.976,1.349,3.976,3.722s-1.446,3.735-3.988,3.735H24.965ZM40.6,20.359a4.823,4.823,0,0,0,4.3-2.4h.06v2.253h2.7V10.866c0-2.711-2.168-4.457-5.505-4.457-3.1,0-5.385,1.771-5.469,4.2h2.626A2.559,2.559,0,0,1,42.072,8.7c1.783,0,2.783.831,2.783,2.361V12.1l-3.638.217c-3.385.2-5.216,1.59-5.216,4C36,18.745,37.891,20.359,40.6,20.359Zm.783-2.229c-1.554,0-2.542-.747-2.542-1.891,0-1.181.952-1.867,2.771-1.976l3.241-.2v1.06C44.854,16.878,43.361,18.131,41.385,18.131Zm9.879,7.192c2.843,0,4.18-1.084,5.349-4.373l5.12-14.36H58.769l-3.433,11.1h-.06L51.842,6.59H48.794l4.939,13.673-.265.831a2.318,2.318,0,0,1-2.458,1.952c-.229,0-.675-.024-.855-.048V25.25A8.03,8.03,0,0,0,51.263,25.322Z" transform="translate(-0.059)" fill="#4c303f"/>
</svg>
