<svg id="Chat_Icon" data-name="Chat Icon" xmlns="http://www.w3.org/2000/svg" xmlns:xlink="http://www.w3.org/1999/xlink" width="19.64" height="19.593" viewBox="0 0 19.64 19.593">
  <defs>
    <clipPath id="clip-path">
      <rect id="Rettangolo_324" data-name="Rettangolo 324" width="19.64" height="19.593" fill="#293e4f"/>
    </clipPath>
  </defs>
  <g id="Raggruppa_442" data-name="Raggruppa 442" clip-path="url(#clip-path)">
    <path id="Tracciato_267" data-name="Tracciato 267" d="M19.64,9.8a9.871,9.871,0,0,1-8.185,9.649,9.617,9.617,0,0,1-6.479-1.129.372.372,0,0,0-.347-.028c-1.113.412-2.23.813-3.345,1.222A.9.9,0,0,1,.087,18.3C.5,17.188.9,16.071,1.309,14.957a.351.351,0,0,0-.026-.329,9.788,9.788,0,1,1,18.1-6.772c.125.639.17,1.293.252,1.939" transform="translate(0 0)" fill="#293e4f"/>
  </g>
</svg>
