<svg id="Google_Pay_Logo" xmlns="http://www.w3.org/2000/svg" width="59.252" height="23.549" viewBox="0 0 59.252 23.549">
  <path id="Tracciato_292" data-name="Tracciato 292" d="M37.021,16.144v6.886H34.8V6h5.775a5.511,5.511,0,0,1,3.776,1.481,4.705,4.705,0,0,1,1.555,3.628,4.816,4.816,0,0,1-1.555,3.628,5.38,5.38,0,0,1-3.776,1.481l-3.554-.074Zm0-8.07V14h3.7a2.848,2.848,0,0,0,2.147-.888,2.84,2.84,0,0,0,.074-4.072l-.074-.074a2.7,2.7,0,0,0-2.147-.888Z" transform="translate(-9.015 -4.663)" fill="#4c303f"/>
  <path id="Tracciato_293" data-name="Tracciato 293" d="M54.909,12.8a5.411,5.411,0,0,1,3.85,1.333,4.578,4.578,0,0,1,1.407,3.554v7.108H58.093V23.166h-.074a4.207,4.207,0,0,1-3.628,2,4.965,4.965,0,0,1-3.258-1.111A3.936,3.936,0,0,1,49.8,21.167a3.582,3.582,0,0,1,1.333-2.888,5.563,5.563,0,0,1,3.628-1.037,5.8,5.8,0,0,1,3.184.74v-.518a2.388,2.388,0,0,0-.888-1.925,3.368,3.368,0,0,0-5.035.74L50.1,15.1A5.64,5.64,0,0,1,54.909,12.8ZM52.1,21.241a1.685,1.685,0,0,0,.74,1.407,2.966,2.966,0,0,0,1.7.592A3.484,3.484,0,0,0,56.982,22.2a3.125,3.125,0,0,0,1.111-2.369,4.623,4.623,0,0,0-2.888-.814,3.6,3.6,0,0,0-2.221.666A1.74,1.74,0,0,0,52.1,21.241Z" transform="translate(-12.909 -6.429)" fill="#4c303f"/>
  <path id="Tracciato_294" data-name="Tracciato 294" d="M75.924,13.3l-7.33,16.807H66.373l2.74-5.849L64.3,13.374h2.369l3.48,8.367h.074l3.406-8.367h2.3Z" transform="translate(-16.673 -6.558)" fill="#4c303f"/>
  <path id="Tracciato_295" data-name="Tracciato 295" d="M22.6,17a18.154,18.154,0,0,0-.148-2H13.2v3.776h5.257a4.489,4.489,0,0,1-1.925,2.962v2.443h3.184A9.525,9.525,0,0,0,22.6,17Z" transform="translate(-3.408 -7)" fill="#4c303f"/>
  <path id="Tracciato_296" data-name="Tracciato 296" d="M10.137,27.822a9.483,9.483,0,0,0,6.516-2.369L13.469,23.01a5.9,5.9,0,0,1-3.332.963A5.8,5.8,0,0,1,4.658,19.9H1.4v2.517A9.784,9.784,0,0,0,10.137,27.822Z" transform="translate(-0.345 -8.272)" fill="#4c303f"/>
  <path id="Tracciato_297" data-name="Tracciato 297" d="M4.288,17.693a5.515,5.515,0,0,1,0-3.776V11.4H1.03a9.724,9.724,0,0,0,0,8.811Z" transform="translate(0.025 -6.065)" fill="#4c303f"/>
  <path id="Tracciato_298" data-name="Tracciato 298" d="M10.163,8.049A5.511,5.511,0,0,1,13.939,9.53h0l2.814-2.814A9.363,9.363,0,0,0,10.237,4.2,9.7,9.7,0,0,0,1.5,9.6l3.258,2.517A5.642,5.642,0,0,1,10.163,8.049Z" transform="translate(-0.371 -4.195)" fill="#4c303f"/>
</svg>
