<svg id="layer1" xmlns="http://www.w3.org/2000/svg" width="88.879" height="25.204" viewBox="0 0 88.879 25.204">
  <g id="logo_Variety" data-name="logo Variety" transform="translate(0 0)">
    <path id="path825" d="M346.587,34.97l-.126.564-1.158.312a1.308,1.308,0,0,0-.6.468l-5.335,6.751-1.986,6.6c-.108.342.03.546.252.6l1.392.342-.186.564H331.9l.186-.564,1.3-.312a.834.834,0,0,0,.66-.69l1.986-6.685-1.74-6.529c-.078-.312-.174-.564-.5-.66l-.816-.222.126-.564h5.917l-.126.564-1,.282c-.36.1-.438.282-.342.6l1.422,5.539,4.2-5.6a.6.6,0,0,0,.126-.312.282.282,0,0,0-.252-.252l-1.128-.282.156-.564Z" transform="translate(-257.838 -27.097)" fill="#4c303f"/>
    <path id="Path" d="M240.791,37.44h-.8l-.69-2.112a.6.6,0,0,0-.69-.5h-1.74L232.8,48.463c-.108.342,0,.546.312.6l1.128.312-.186.564h-6.781l.186-.564,1.2-.282a.846.846,0,0,0,.78-.75L233.476,34.8h-2.022a.948.948,0,0,0-.75.468l-1.4,2h-.78l1.266-3.937h.5a.6.6,0,0,0,.6.408h8.467a.792.792,0,0,0,.816-.408h.534Zm-12.566-.2h-.78l-.75-2.022a.6.6,0,0,0-.6-.408h-3.241l-1.83,6.169h3.055c.312,0,.5-.156.72-.468l.846-1.236h.78l-1.44,4.915h-.78l.03-1.74c0-.312-.186-.408-.5-.408h-3l-2.064,6.817h4.447a1.146,1.146,0,0,0,1.128-.5l1.77-2.208h.846l-1.8,4.261H224.5c-.156-.312-.378-.438-.942-.438h-10.2l.186-.564,1.2-.312a.84.84,0,0,0,.6-.69l3.913-13.2a.4.4,0,0,0-.186-.534l-1.1-.342.156-.564h8.8a.738.738,0,0,0,.69-.408h.5Z" transform="translate(-165.838 -25.87)" fill="#4c303f"/>
    <path id="Path-2" data-name="Path" d="M89.764,3.6a115.819,115.819,0,0,1-24.142,2.55c-19.2,0-32.705-2.616-38.406-3.979L3.194,24.952,1.238,25.2,8.3,3.709A25.972,25.972,0,0,1,1.646,5.4c-.546.06-.564-.252-.312-.39A6.277,6.277,0,0,0,4.514,1.362c3.463.846,6.073.186,9.236-.972L7.377,18.471,24.4,0A156.72,156.72,0,0,0,55.637,3.271c8.281,0,15.543-1.3,19.287-2.832C80.187,3.571,86.194,3.3,89.638,3.085c.5-.03.564.438.126.534" transform="translate(-1.178)" fill="#4c303f"/>
    <path id="Path-3" data-name="Path" d="M141.064,32.391l-.156.564-1.332.378a.666.666,0,0,0-.468.534l-3.913,13.1c-.108.39-.2.642.282.78l.942.282-.186.564h-6.271l.186-.564.906-.282c.516-.156.672-.342.78-.75l3.883-13.166c.078-.282,0-.468-.222-.534l-1.032-.342.156-.564ZM131.721,36.4c0,2.46-1.956,4.6-5.137,4.477a7.843,7.843,0,0,1-1.83-.282c0,3,.924,6.073,2.706,6.073,1.1,0,1.422-.924,1.578-1.7.03-.126.126-.222.282-.06a2.568,2.568,0,0,1,.78,1.9c0,1.848-1.2,2.676-2.928,2.676-4.459,0-4.663-6.421-3.943-10.364.048-.222.126-.252.282-.156a3.913,3.913,0,0,0,2.142.534,2.913,2.913,0,0,0,2.8-3.211c0-2.07-1.716-3.361-4.255-3.361l-4.2,14.1a1.075,1.075,0,0,0-.06.342.312.312,0,0,0,.282.342l1.2.312-.186.564h-6.253l.186-.564.942-.282c.3-.1.42-.264.564-.72l4.159-14.1c-1.8.378-2.676,1.05-2.676,2.082a1.758,1.758,0,0,0,.312,1.128.564.564,0,0,1,.1.312c0,.234-.2.438-.78.438a1.692,1.692,0,0,1-1.8-1.86c0-.78.486-3.427,7.375-3.427,5.839,0,8.359,1.9,8.359,4.8" transform="translate(-89.498 -24.518)" fill="#4c303f"/>
    <path id="path833" d="M51.6,33.367l-6.463,7.963h5.731Zm3.337,12.788-.186.564H48.828l.186-.564,1.032-.282a.6.6,0,0,0,.468-.6l.252-2.742H44.117l-2.172,2.622a.744.744,0,0,0-.222.408c0,.138.078.234.252.282l1,.312-.186.564H37.81l.222-.564,1.032-.252a2.04,2.04,0,0,0,1-.69L53.509,29.407l1.392-.252L53.6,45.279c-.03.342,0,.564.408.66Z" transform="translate(-29.606 -22.626)" fill="#4c303f"/>
  </g>
</svg>
