<svg id="layer1" xmlns="http://www.w3.org/2000/svg" width="140.324" height="21.412" viewBox="0 0 140.324 21.412">
  <path id="path857" d="M21.039,10.82A10.52,10.52,0,1,1,10.519.229,10.556,10.556,0,0,1,21.039,10.82m11.54,0c0,5.507-2.355,9.97-5.26,9.97s-5.26-4.465-5.26-9.97S24.414.85,27.319.85s5.26,4.465,5.26,9.97m4.72,0c0,4.934-.828,8.933-1.85,8.933s-1.85-4-1.85-8.933.828-8.933,1.85-8.933,1.85,4,1.85,8.933M66.332,1.147l.029-.006V.914H60.378L54.824,13.97,49.269.914H42.822v.227l.029.006c1.092.246,1.646.614,1.646,1.94V18.605c0,1.326-.557,1.693-1.648,1.94l-.029.006v.228h4.374v-.227l-.029-.006c-1.092-.246-1.646-.614-1.646-1.94V3.987l7.136,16.792h.4L60.4,3.519V18.989c-.094,1.047-.643,1.37-1.632,1.593l-.029.007v.225h7.619V20.59l-.029-.007c-.99-.223-1.552-.547-1.646-1.593l-.005-15.9h.005c0-1.326.554-1.693,1.646-1.94m3.48,10.28c.125-2.788,1.126-4.8,2.806-4.835a1.834,1.834,0,0,1,1.291.506c.718.7,1.056,2.153,1,4.33Zm-.075.786h8.93v-.038a6.645,6.645,0,0,0-1.834-4.929,6.03,6.03,0,0,0-4.155-1.526h-.036a6.181,6.181,0,0,0-2.575.567,6.013,6.013,0,0,0-2.159,1.7,8.466,8.466,0,0,0-1.71,4.677c0,.055-.009.11-.012.165s-.006.1-.009.157q-.019.387-.013.775c.1,4.157,2.342,7.479,6.33,7.479,3.5,0,5.539-2.559,6.047-5.994l-.257-.09a4.5,4.5,0,0,1-4.322,2.828c-2.492-.186-4.4-2.713-4.228-5.773m19.028,5.632a1.747,1.747,0,0,1-1.723,1.077,2.494,2.494,0,0,1-2.1-1.584,9.934,9.934,0,0,1-.872-4.483c0-3.822,1.189-6.294,3.029-6.294a1.728,1.728,0,0,1,1.666,1.049Zm5.924,2.725c-1.092-.258-1.646-.643-1.646-2.036V0L86.406,1.955v.239l.041,0a2.474,2.474,0,0,1,1.9.385,1.579,1.579,0,0,1,.42,1.224V6.341a4.29,4.29,0,0,0-2.376-.621,6.42,6.42,0,0,0-4.927,2.27,9.066,9.066,0,0,0-2.011,6.03c0,4.32,2.126,7.223,5.291,7.223a4.186,4.186,0,0,0,4.023-2.725v2.3h5.953v-.238Zm5.69-18.05A2.314,2.314,0,0,0,98.011.155a2.366,2.366,0,1,0,0,4.732,2.314,2.314,0,0,0,2.366-2.366m1.566,18.05c-1.092-.258-1.646-.643-1.646-2.036h0V5.764L94.339,7.473v.232l.036,0c1.288.115,1.641.558,1.641,2.064V20.815h5.958v-.238Zm15.254,0c-1.092-.258-1.646-.643-1.646-2.036V5.764l-5.668,1.653V7.65l.034,0c1.053.111,1.357.58,1.357,2.092v8.073a2.043,2.043,0,0,1-1.808,1.135c-1.294,0-2.007-.874-2.007-2.461V5.764l-5.953,1.709v.232l.036,0c1.288.114,1.641.558,1.641,2.064V16.6a7.661,7.661,0,0,0,.124,1.422l.107.466a3.628,3.628,0,0,0,3.894,2.75,4.271,4.271,0,0,0,3.965-2.782v2.358h5.953v-.238Zm23.126.244v-.238l-.029-.007c-1.185-.273-1.646-.788-1.646-1.837V10.045c0-2.709-1.521-4.325-4.07-4.325a4.182,4.182,0,0,0-4.027,2.745,3.663,3.663,0,0,0-3.9-2.745,3.871,3.871,0,0,0-3.8,2.541v-2.5L116.908,7.4v.234l.036,0c1.273.113,1.641.569,1.641,2.036V20.815h5.555v-.238l-.029-.007c-.945-.222-1.25-.627-1.25-1.667V8.946a1.875,1.875,0,0,1,1.75-1.276c1.237,0,1.865.857,1.865,2.546v10.6h5.556v-.238L132,20.57c-.945-.222-1.25-.627-1.25-1.667V10.044a5.733,5.733,0,0,0-.079-.989,1.988,1.988,0,0,1,1.835-1.386c1.255,0,1.865.833,1.865,2.546v10.6Z" transform="translate(0 0)" fill="#4c303f"/>
</svg>
