<svg xmlns="http://www.w3.org/2000/svg" width="110.029" height="19.295" viewBox="0 0 110.029 19.295">
  <path id="maison-objet-logo-vector" d="M107.13,282.717v-.22a3.294,3.294,0,0,0,2.751-3.246l.037-.715-.037-.715c-.092-3.173-1.541-4.218-4.035-4.218h-3.485v18.891h3.485c2.513,0,3.943-1.045,4.09-4.218l.037-1.192-.037-1.119A3.215,3.215,0,0,0,107.13,282.717Zm-2-6.933h.7c.789,0,1.284.33,1.284,1.449l-.018,1.3.018,1.449c0,1.1-.5,1.449-1.284,1.449h-.7Zm2,12.949c.018,1.1-.5,1.449-1.284,1.449h-.7v-6.254h.7c.789,0,1.3.33,1.284,1.449l-.018,1.742ZM58.361,281.8c-1.064-.954-1.963-1.687-1.963-3.375v-1.009c0-1.045.367-1.559,1.009-1.559.624,0,1.009.514,1.009,1.559v.605c0,2.128.2,2.238.2,2.238h2.476s-.183-.128-.183-2.238c-.092-3.155-1.211-4.622-3.5-4.622-2.274,0-3.632,1.541-3.7,4.64v.88a6.759,6.759,0,0,0,2.659,4.989c1.082.954,2.091,1.706,2.091,3.521v1.211c0,1.009-.367,1.559-1.045,1.559s-1.045-.514-1.045-1.559v-.954c0-2.238-.257-2.366-.257-2.366H53.739v2.733c.073,3.173,1.266,4.64,3.65,4.64s3.7-1.541,3.8-4.64v-1.045C61.258,284.735,60.011,283.3,58.361,281.8ZM51.9,273.6h-2.77v18.891H51.9Zm-10.143,0-2.77,18.891h2.641l.422-2.733h2.366l.422,2.733H47.5L44.733,273.6Zm.642,13.958.715-4.64h.2l.715,4.64Zm-10.491-4.512h-.2L29.675,273.6H26.3v18.891h2.421v-9.446h.2l2.146,9.446h1.5l2.146-9.446h.2v9.446h2.421V273.6H33.967Zm96.475-9.446v2.458h2.586v16.434h2.77V276.059h2.586V273.6ZM116.1,276.059v12.435c0,1.1-.4,1.559-1.064,1.559s-1.064-.458-1.064-1.559v-3.21H111.5l-.2,2.77c.037,3.173,1.247,4.64,3.723,4.64,2.513,0,3.833-1.467,3.833-4.64V273.6H115.7C115.75,273.62,116.1,273.8,116.1,276.059ZM96.345,273.4c-2.366,0-3.687,1.577-3.742,4.64l-.147,5.007.128,5.007c.073,3.045,1.376,4.64,3.742,4.64s3.687-1.577,3.742-4.64l.128-5.007-.128-5.007C100.014,274.977,98.711,273.4,96.345,273.4Zm1.045,15.241c.018,1.1-.4,1.559-1.064,1.559s-1.082-.459-1.064-1.559l.073-5.594-.073-5.667c-.018-1.1.4-1.559,1.064-1.559s1.082.458,1.064,1.559l-.073,5.667Zm-7.006-6.089H88.5l-.587,1.889-1.339-2.476c-.954-1.779-1.266-2.293-1.3-3.613,0-.789.293-1.1.789-1.1s.789.293.789,1.1v2.384h1.8l.2-2c-.092-2.384-.9-3.5-2.806-3.5-1.687,0-2.806,1.1-2.916,3.5a8.147,8.147,0,0,0,1.449,4.017l-.459.385a4.288,4.288,0,0,0-1.6,3.613c.092,2.384.99,3.7,3.1,3.7a2.9,2.9,0,0,0,2.568-1.376l.752,1.284h2l-1.852-3.522Zm-4.6,6.108c-.7,0-1.009-.293-.99-1.192l.018-.789-.018-.789a1.9,1.9,0,0,1,.66-1.669l1.651,2.861C86.7,288.183,86.441,288.568,85.781,288.66Zm-8.2-5.612h-.2L74.9,273.6H72.758v18.891h2.476v-9.446h.2l2.164,9.446H80.04V273.6H77.582Zm43.3,9.446h6.474v-2.476h-3.7v-5.961H126.7V281.4h-3.045v-5.337h3.7V273.6h-6.474ZM66.743,273.4c-2.366,0-3.687,1.577-3.742,4.64l-.128,5.007L63,288.055c.073,3.045,1.376,4.64,3.742,4.64s3.687-1.577,3.742-4.64l.128-5.007-.128-5.007C70.411,274.977,69.109,273.4,66.743,273.4Zm1.045,15.241c.018,1.1-.4,1.559-1.064,1.559s-1.082-.459-1.064-1.559l.073-5.594-.073-5.667c-.018-1.1.4-1.559,1.064-1.559s1.082.458,1.064,1.559l-.073,5.667Z" transform="translate(-26.3 -273.4)" fill="#4c303f"/>
</svg>
