<svg xmlns="http://www.w3.org/2000/svg" xmlns:xlink="http://www.w3.org/1999/xlink" width="100.846" height="102.648" viewBox="0 0 100.846 102.648">
  <defs>
    <clipPath id="clip-path">
      <rect id="Rettangolo_327" data-name="Rettangolo 327" width="100.846" height="102.648" fill="#fff"/>
    </clipPath>
  </defs>
  <g id="Raggruppa_495" data-name="Raggruppa 495" style="mix-blend-mode: difference;isolation: isolate">
    <g id="Raggruppa_449" data-name="Raggruppa 449" clip-path="url(#clip-path)">
      <path id="Tracciato_268" data-name="Tracciato 268" d="M57.041,10.285q.455-2.1.732-3.65.392-2.259.552-3.515.24-1.744.357-3.119a3.615,3.615,0,0,0,.376.044,2.2,2.2,0,0,0,.4-.025q1,2.433,1.346,3.217.623,1.381,1.921,4.064l.392.794q.179-.31.476-.839t.463-.846q1.053-1.969,1.63-3.124.5-.974,1.521-3.078a2.806,2.806,0,0,0,.361.044,2.168,2.168,0,0,0,.412-.025q.055,1.68.164,3.091.146,1.593.372,3.634.2,1.685.473,3.623c-.373-.037-.646-.057-.814-.061s-.458,0-.869.021Q67.193,8,67.1,6.861q-.146-1.67-.42-3.881-1.219,2.225-2.06,3.876-.676,1.335-1.732,3.57a1.444,1.444,0,0,0-.2-.018,1.247,1.247,0,0,0-.218.009q-.836-2.043-1.581-3.72Q60.167,5.1,59.07,2.823q-.394,2.468-.565,3.857-.152,1.158-.41,3.63a4.629,4.629,0,0,0-.52-.041,5.064,5.064,0,0,0-.534.015" transform="translate(-11.628 0)" fill="#fff"/>
      <path id="Tracciato_269" data-name="Tracciato 269" d="M72.2,11.341q.579-.553.957-.963.68-.736,2.874-3.22Q78.548,4.273,79.3,3.384l.425-.52a4.574,4.574,0,0,0,.518.225,2.944,2.944,0,0,0,.529.1l-.021.623q-.044,1.605.081,4.815.079,2.157.268,3.979.069.681.2,1.548c-.268-.1-.56-.2-.874-.3s-.6-.176-.892-.246q.01-1.169.012-1.754,0-.662-.057-2.179-.823-.283-1.719-.56-1.034-.32-1.926-.566-.677.78-1.514,1.817-.524.651-1.024,1.317a5.568,5.568,0,0,0-.541-.2q-.282-.087-.557-.143m7.284-2.486L79.3,4.519,76.377,7.893q.73.256,1.562.513.785.242,1.545.448" transform="translate(-14.718 -0.584)" fill="#fff"/>
      <path id="Tracciato_270" data-name="Tracciato 270" d="M89.816,6.446q.45.339.686.492.147.088,1.255.691.383.2,1.009.581A5.955,5.955,0,0,1,95.6,11.431a4.643,4.643,0,0,1-.681,3.867,5.232,5.232,0,0,1-3.344,2.535,5.448,5.448,0,0,1-4.193-.785q-.24-.146-1.061-.68-.775-.5-.932-.6-.288-.174-.935-.52.213-.321.5-.747t.349-.533q1.28-1.941,2.039-3.174.327-.539.96-1.627.883-1.568,1.521-2.72m2.246,2.2q-.672-.41-1.358-.745L89.519,9.814,88.358,11.72l-1.111,1.822-1.1,1.83q.924.7,1.365.971a4.326,4.326,0,0,0,2.359.733,3.618,3.618,0,0,0,1.987-.654,5.592,5.592,0,0,0,1.654-1.781,5.386,5.386,0,0,0,.853-2.414,3.075,3.075,0,0,0-.533-2.021,5.8,5.8,0,0,0-1.774-1.564" transform="translate(-17.216 -1.314)" fill="#fff"/>
      <path id="Tracciato_271" data-name="Tracciato 271" d="M95.554,23q.314-.29,1.137-1.091,1.21-1.127,2.661-2.636.425-.445,1.275-1.375,1.029-1.1,2.076-2.341.327.351.373.4.6.651,1.431,1.446.743.709,1.91,1.7-.15.137-.291.284a4.028,4.028,0,0,0-.314.368q-.977-1.069-1.8-1.854c-.088-.085-.213-.2-.371-.345s-.295-.273-.41-.383q-.634.642-1.3,1.336-.744.78-1.31,1.391.252.262.56.554.718.685,1.939,1.668a3.283,3.283,0,0,0-.32.3,3.5,3.5,0,0,0-.285.338q-1.644-1.689-1.8-1.834l-.366-.35-.2-.194q-.72.734-1.542,1.594l-.705.739-.7.754c.109.1.235.227.377.369s.251.25.327.322q.639.61,1.994,1.769a2.612,2.612,0,0,0-.358.316,1.966,1.966,0,0,0-.256.326q-1.219-1.242-1.848-1.842-.659-.629-1.045-.978-.762-.671-.841-.746" transform="translate(-19.479 -3.171)" fill="#fff"/>
      <path id="Tracciato_272" data-name="Tracciato 272" d="M113.667,28.674q.232.469.387.72a7.425,7.425,0,0,0,.51.69q-.448.235-1.306.724-1.754,1.034-3.332,2.037-1.015.645-1.516.98-1.1.748-2.537,1.8-.266-.5-.4-.71t-.5-.7q.934-.512,1.338-.752,1.957-1.148,3.071-1.847.886-.564,1.728-1.155,1.043-.7,2.554-1.787" transform="translate(-21.4 -5.845)" fill="#fff"/>
      <path id="Tracciato_273" data-name="Tracciato 273" d="M117.142,34.535a3.709,3.709,0,0,0,.138.414,2.434,2.434,0,0,0,.2.389q-1.236,2.11-1.963,3.459-1.01,1.815-1.9,3.557-.9,1.785-1.083,2.15l.892-.334q.482-.186,2.04-.835l1.654-.689q.529-.221,1.425-.627t1.446-.65a4.2,4.2,0,0,0,.142.431,2.352,2.352,0,0,0,.193.372q-.387.146-.912.35t-.655.258q-1.849.711-2.986,1.185-.834.346-3.472,1.49l-1.514.661a3.751,3.751,0,0,0-.156-.447,3.287,3.287,0,0,0-.194-.393q1.106-1.967,2.25-4.1,1.279-2.372,2.144-4.1l.4-.819-.556.231-.71.3-1.26.525-1.415.589q-1.363.568-3.32,1.457a3.6,3.6,0,0,0-.146-.424,2.883,2.883,0,0,0-.188-.378q.4-.152.931-.35c.354-.133.58-.22.68-.261q2.5-.967,3.174-1.241.995-.414,1.874-.833,1.12-.5,2.848-1.334" transform="translate(-21.942 -7.04)" fill="#fff"/>
      <path id="Tracciato_274" data-name="Tracciato 274" d="M113.2,57.031q.385-.019.91-.037c.35-.012.572-.022.665-.029q1.42-.055,3.666-.242,1.3-.112,1.951-.182,1.057-.119,3.077-.4c.006.064.01.159.014.287a2.341,2.341,0,0,1,0,.262q.036.91.127,1.958t.315,2.581q-.219-.008-.463.006a2.424,2.424,0,0,0-.423.071q-.014-.336-.035-.822c-.014-.324-.026-.536-.034-.635q-.069-1.123-.127-1.8l-.032-.361q-.9.063-1.855.146-1.011.087-1.9.178c0,.169.015.342.031.52q.094,1.09.366,2.855a3.536,3.536,0,0,0-.436,0,3.026,3.026,0,0,0-.408.076q-.121-2.2-.177-2.857l-.046-.532-1.129.1-.8.069q-.9.076-3.122.352,0-.363-.04-.783t-.1-.779" transform="translate(-23.076 -11.445)" fill="#fff"/>
      <path id="Tracciato_275" data-name="Tracciato 275" d="M113.593,65.194q.382.045.9.117c.347.047.568.075.661.082q1.708.226,3.654.394.627.053,1.94.135,1.747.1,3.113.143-.086.529-.11.726-.032.389-.031,1.138c0,.339-.014.665-.04.979a3.685,3.685,0,0,1-.876,2.291,2.262,2.262,0,0,1-1.936.7,2.658,2.658,0,0,1-1.4-.546,2.5,2.5,0,0,1-.885-1.177,4.366,4.366,0,0,1-.183-1.424c-.068.04-.149.084-.239.135s-.161.086-.209.109q-1.127.724-1.857,1.206-.639.428-3.111,2.276c.068-.471.109-.8.124-.986q.027-.321.049-1.082,1.654-.893,3-1.736,1.231-.8,2.257-1.557-.6-.063-1.213-.115l-.62-.052q-1.025-.085-3.119-.157c.061-.389.1-.658.11-.809s.021-.422.023-.788m9.386,2.3-4-.347a4.88,4.88,0,0,0-.1.638,2.719,2.719,0,0,0,.4,1.871,1.985,1.985,0,0,0,1.529.771,2.351,2.351,0,0,0,1.112-.162,1.4,1.4,0,0,0,.728-.6,2.863,2.863,0,0,0,.316-1.183,7.149,7.149,0,0,0,.013-.989" transform="translate(-23.032 -13.29)" fill="#fff"/>
      <path id="Tracciato_276" data-name="Tracciato 276" d="M112.479,73.658q.559.573.974.946.743.67,3.254,2.836,2.913,2.485,3.81,3.223l.525.42a4.667,4.667,0,0,0-.22.521,3.139,3.139,0,0,0-.092.53l-.623-.014q-1.605-.026-4.814.137-2.156.1-3.976.314-.68.076-1.545.213.149-.406.29-.878t.236-.894q1.169,0,1.755-.009.66-.011,2.177-.083.273-.826.541-1.725.308-1.038.544-1.931-.787-.67-1.834-1.494-.657-.517-1.329-1.009a5.448,5.448,0,0,0,.19-.544q.084-.282.137-.559m2.571,7.255,4.333-.236-3.408-2.882q-.247.734-.494,1.568-.234.788-.431,1.551" transform="translate(-22.377 -15.015)" fill="#fff"/>
      <path id="Tracciato_277" data-name="Tracciato 277" d="M117.222,91.1a3.723,3.723,0,0,0-.244.361,2.432,2.432,0,0,0-.189.392q-2.427.3-3.939.545-2.055.3-3.978.657-1.966.37-2.365.448l.807.5q.442.271,1.9,1.111l1.553.894q.5.287,1.364.75t1.4.752a3.86,3.86,0,0,0-.256.373,2.307,2.307,0,0,0-.178.38q-.351-.217-.833-.51c-.321-.2-.521-.316-.6-.363q-1.69-1.035-2.757-1.65-.782-.45-3.3-1.849l-1.445-.8a3.852,3.852,0,0,0,.26-.395,3.344,3.344,0,0,0,.194-.394q2.234-.319,4.621-.706,2.661-.429,4.556-.791l.895-.18-.521-.3-.667-.384-1.182-.681-1.328-.764q-1.28-.737-3.176-1.748a3.868,3.868,0,0,0,.248-.375A3.185,3.185,0,0,0,108.25,86l.844.525q.481.3.62.381,2.289,1.4,2.916,1.765.934.537,1.8.982,1.075.586,2.791,1.448" transform="translate(-21.234 -17.532)" fill="#fff"/>
      <path id="Tracciato_278" data-name="Tracciato 278" d="M102.533,109.923a6.584,6.584,0,0,0-.725-1l.064-.128a3.411,3.411,0,0,0,3.1-1.052,3.317,3.317,0,0,0,.975-2.87,5.489,5.489,0,0,0-1.83-3.144,4.928,4.928,0,0,0-3.1-1.516,3.443,3.443,0,0,0-2.809,1.148,4.452,4.452,0,0,0-1.067,3.214l-.111.025-.361-.533c-.02-.02-.073-.088-.159-.2a3.81,3.81,0,0,0-.255-.315c.036-.092.076-.207.123-.346a2.617,2.617,0,0,0,.077-.258,5.9,5.9,0,0,1,1.306-2.048,5.218,5.218,0,0,1,3.7-1.755,5.107,5.107,0,0,1,3.777,1.551,5.8,5.8,0,0,1,1.472,2.258,4.889,4.889,0,0,1-1.323,5.308,6.29,6.29,0,0,1-1.456,1.109,6.725,6.725,0,0,1-1.406.56" transform="translate(-19.623 -20.209)" fill="#fff"/>
      <path id="Tracciato_279" data-name="Tracciato 279" d="M92.885,105.338q.221.367.842,1.333.863,1.41,2.051,3.134.351.505,1.092,1.525.869,1.228,1.88,2.5-.41.25-.471.283-.757.457-1.7,1.114-.843.586-2.046,1.532c-.069-.116-.143-.23-.22-.342a4.128,4.128,0,0,0-.3-.381q1.243-.743,2.177-1.392c.1-.07.239-.169.412-.295s.326-.235.457-.326q-.5-.75-1.05-1.537-.615-.885-1.1-1.561-.307.2-.655.438-.816.566-2.022,1.566a3.3,3.3,0,0,0-.225-.372,3.564,3.564,0,0,0-.275-.347q1.984-1.274,2.158-1.4l.416-.288.23-.161q-.574-.853-1.253-1.83L92.7,107.7l-.6-.837c-.124.085-.27.184-.437.295s-.295.2-.381.256q-.725.5-2.132,1.6a2.779,2.779,0,0,0-.237-.415,2.06,2.06,0,0,0-.269-.315q1.461-.947,2.175-1.442.748-.519,1.167-.828.808-.613.9-.675" transform="translate(-18.07 -21.473)" fill="#fff"/>
      <path id="Tracciato_280" data-name="Tracciato 280" d="M68.761,115.709q-.363,2.114-.572,3.678-.291,2.274-.4,3.536-.164,1.752-.22,3.132a3.452,3.452,0,0,0-.377-.028,2.191,2.191,0,0,0-.4.043q-1.1-2.386-1.486-3.155-.684-1.352-2.1-3.977l-.426-.775q-.165.318-.439.859t-.425.865q-.967,2.013-1.493,3.192-.46,1-1.384,3.142a3.056,3.056,0,0,0-.364-.028,2.19,2.19,0,0,0-.41.043q-.129-1.677-.3-3.08-.216-1.585-.529-3.615-.272-1.674-.631-3.6.562.03.815.025t.869-.059q.221,2.529.365,3.661.217,1.661.589,3.859,1.12-2.276,1.888-3.963.617-1.363,1.573-3.642a1.362,1.362,0,0,0,.2.01,1.262,1.262,0,0,0,.219-.018q.922,2.005,1.742,3.648.791,1.56,1.984,3.79.288-2.483.4-3.878.1-1.164.252-3.645a4.34,4.34,0,0,0,.521.018,5.065,5.065,0,0,0,.533-.038" transform="translate(-11.582 -23.587)" fill="#fff"/>
      <path id="Tracciato_281" data-name="Tracciato 281" d="M54.274,115.162q-.554.578-.914,1.006-.645.764-2.728,3.345-2.388,2.992-3.1,3.914l-.4.538a4.657,4.657,0,0,0-.528-.2,2.992,2.992,0,0,0-.533-.074l-.007-.624q-.026-1.605-.295-4.806-.174-2.151-.443-3.964-.1-.677-.264-1.537c.273.09.568.178.887.26s.61.15.9.207q.041,1.168.065,1.752.033.659.154,2.174.834.246,1.742.484,1.046.273,1.948.48.642-.81,1.433-1.883.494-.674.964-1.361a5.683,5.683,0,0,0,.549.173q.285.074.564.118m-7.167,2.807.379,4.322,2.768-3.5q-.742-.223-1.583-.443-.8-.208-1.564-.38" transform="translate(-9.187 -22.986)" fill="#fff"/>
      <path id="Tracciato_282" data-name="Tracciato 282" d="M36.331,120.711q-.465-.32-.707-.462-.15-.084-1.283-.637-.392-.184-1.033-.538a5.952,5.952,0,0,1-2.968-3.1,4.645,4.645,0,0,1,.514-3.892,5.233,5.233,0,0,1,3.233-2.675,5.446,5.446,0,0,1,4.222.6q.246.136,1.09.634.8.472.958.561.294.162.955.48l-.463.767c-.176.291-.285.474-.325.548q-1.2,1.993-1.9,3.258-.3.552-.889,1.668-.814,1.6-1.4,2.782m-2.338-2.1q.689.381,1.388.686l1.1-1.966,1.079-1.954,1.032-1.869,1.019-1.875q-.953-.654-1.405-.912a4.322,4.322,0,0,0-2.389-.632,3.628,3.628,0,0,0-1.956.739,5.6,5.6,0,0,0-1.577,1.851,5.386,5.386,0,0,0-.749,2.447,3.073,3.073,0,0,0,.619,2,5.777,5.777,0,0,0,1.839,1.487" transform="translate(-6.139 -22.265)" fill="#fff"/>
      <path id="Tracciato_283" data-name="Tracciato 283" d="M30.046,104.534q-.3.3-1.09,1.138-1.162,1.179-2.547,2.746-.406.463-1.217,1.428-.982,1.139-1.976,2.427c-.228-.225-.357-.354-.389-.388q-.627-.626-1.491-1.384-.773-.678-1.98-1.617.144-.143.278-.3a3.842,3.842,0,0,0,.3-.381q1.022,1.027,1.876,1.777c.093.081.221.19.385.329s.307.26.427.365q.607-.67,1.239-1.39.711-.81,1.249-1.445-.263-.25-.583-.529-.745-.656-2.007-1.586a3.2,3.2,0,0,0,.307-.307,3.5,3.5,0,0,0,.27-.35q1.715,1.617,1.875,1.757l.381.334.211.186q.689-.764,1.474-1.658l.674-.767.669-.783q-.17-.148-.392-.353t-.34-.308q-.664-.582-2.067-1.683a2.8,2.8,0,0,0,.345-.33,2,2,0,0,0,.241-.338q1.271,1.189,1.924,1.763.684.6,1.084.933.789.638.872.709" transform="translate(-3.946 -20.615)" fill="#fff"/>
      <path id="Tracciato_284" data-name="Tracciato 284" d="M12.085,100.666q-.251-.459-.417-.7a7.478,7.478,0,0,0-.538-.669q.437-.254,1.274-.779,1.71-1.108,3.242-2.177.988-.689,1.474-1.044,1.066-.794,2.459-1.906.287.485.432.693t.524.678q-.911.552-1.3.809-1.907,1.229-2.99,1.976-.86.6-1.677,1.228-1.012.738-2.476,1.892" transform="translate(-2.269 -19.038)" fill="#fff"/>
      <path id="Tracciato_285" data-name="Tracciato 285" d="M7.5,93.786a3.812,3.812,0,0,0-.155-.408A2.419,2.419,0,0,0,7.129,93q1.146-2.16,1.815-3.538.933-1.856,1.747-3.635.826-1.82.991-2.193L10.806,84q-.475.207-2,.92l-1.623.758q-.519.242-1.4.686t-1.417.711a4.19,4.19,0,0,0-.159-.424A2.413,2.413,0,0,0,4,86.29q.38-.161.9-.388t.643-.285q1.818-.788,2.933-1.31.818-.382,3.407-1.635l1.485-.725a3.884,3.884,0,0,0,.174.44,3.3,3.3,0,0,0,.211.385q-1.022,2.012-2.076,4.189Q10.493,89.386,9.7,91.147l-.366.836.545-.254.7-.326,1.236-.577,1.389-.648q1.338-.625,3.255-1.6a3.78,3.78,0,0,0,.164.419,3.041,3.041,0,0,0,.2.369c-.261.112-.567.242-.915.389s-.571.244-.668.29q-2.458,1.071-3.119,1.373-.977.456-1.838.911-1.1.543-2.789,1.454" transform="translate(-0.815 -16.705)" fill="#fff"/>
      <path id="Tracciato_286" data-name="Tracciato 286" d="M11.021,72.762q-.383.036-.908.075c-.35.026-.57.045-.663.058q-1.418.112-3.653.393-1.291.166-1.942.263-1.051.162-3.058.524-.012-.1-.026-.287a2.154,2.154,0,0,1-.009-.261q-.074-.909-.208-1.951T.134,69.009c.146,0,.3-.009.463-.025a2.531,2.531,0,0,0,.419-.088q.029.334.07.819t.06.635q.116,1.118.2,1.79l.045.36q.9-.1,1.849-.223,1.006-.129,1.892-.257c-.012-.169-.029-.341-.052-.518q-.14-1.087-.484-2.837a3.652,3.652,0,0,0,.435-.015,3.05,3.05,0,0,0,.4-.093q.211,2.2.3,2.848l.068.53,1.124-.144.791-.1q.9-.115,3.106-.482.019.364.072.782c.036.278.078.537.127.774" transform="translate(-0.027 -13.975)" fill="#fff"/>
      <path id="Tracciato_287" data-name="Tracciato 287" d="M10.3,64.063q-.383-.03-.907-.08t-.663-.056q-1.716-.154-3.666-.244-.629-.026-1.945-.055Q1.367,63.6,0,63.614q.066-.531.08-.73c.012-.26.006-.639-.014-1.138q-.02-.509,0-.98a3.682,3.682,0,0,1,.781-2.325,2.263,2.263,0,0,1,1.906-.776,2.658,2.658,0,0,1,1.423.488,2.5,2.5,0,0,1,.932,1.139,4.323,4.323,0,0,1,.241,1.416c.068-.043.145-.091.234-.144s.156-.093.2-.119q1.1-.769,1.806-1.281.621-.453,3.015-2.4-.073.709-.084.99-.013.322,0,1.083Q8.9,59.8,7.6,60.693q-1.2.848-2.192,1.649.6.039,1.217.065l.623.025q1.027.044,3.122.029c-.045.391-.069.662-.076.813s0,.422.009.788M.826,62.148l4.005.182a4.706,4.706,0,0,0,.076-.641,2.723,2.723,0,0,0-.475-1.853,1.986,1.986,0,0,0-1.56-.707,2.357,2.357,0,0,0-1.1.208,1.4,1.4,0,0,0-.7.628A2.892,2.892,0,0,0,.8,61.16a7.152,7.152,0,0,0,.029.988" transform="translate(0 -11.571)" fill="#fff"/>
      <path id="Tracciato_288" data-name="Tracciato 288" d="M10.9,55.074q-.583-.549-1.013-.905-.77-.638-3.369-2.7Q3.5,49.109,2.572,48.41l-.542-.4a4.664,4.664,0,0,0,.2-.529,2.988,2.988,0,0,0,.069-.533l.624-.012q1.605-.042,4.8-.337,2.148-.193,3.959-.479.676-.105,1.534-.278-.131.412-.252.89t-.2.9q-1.168.053-1.753.081-.658.039-2.172.174-.239.837-.469,1.747-.264,1.05-.463,1.952.814.635,1.895,1.416.678.488,1.369.952a5.611,5.611,0,0,0-.167.551q-.072.285-.114.564m-2.87-7.141-4.319.416L7.23,51.086q.217-.744.429-1.587.2-.8.365-1.568" transform="translate(-0.414 -9.345)" fill="#fff"/>
      <path id="Tracciato_289" data-name="Tracciato 289" d="M4.993,37.14a3.823,3.823,0,0,0,.229-.371,2.451,2.451,0,0,0,.173-.4q2.411-.4,3.912-.709,2.041-.389,3.948-.823,1.948-.451,2.345-.547l-.828-.47q-.454-.252-1.949-1.031l-1.588-.828q-.509-.265-1.395-.692t-1.426-.693a3.861,3.861,0,0,0,.24-.385,2.249,2.249,0,0,0,.162-.386q.361.2.853.475t.617.337q1.732.964,2.823,1.533.8.418,3.37,1.71l1.477.739a3.827,3.827,0,0,0-.243.406,3.355,3.355,0,0,0-.178.4q-2.218.411-4.587.9-2.64.539-4.52.981l-.887.217.534.278.682.356,1.21.631,1.359.709q1.309.682,3.246,1.614a3.676,3.676,0,0,0-.232.385,2.931,2.931,0,0,0-.17.387l-.865-.49q-.493-.281-.635-.354-2.345-1.3-2.987-1.642-.957-.5-1.841-.905-1.1-.541-2.849-1.33" transform="translate(-1.018 -6.076)" fill="#fff"/>
      <path id="Tracciato_290" data-name="Tracciato 290" d="M19.466,18.066a6.552,6.552,0,0,0,.766.973l-.058.131a3.411,3.411,0,0,0-3.056,1.181,3.313,3.313,0,0,0-.853,2.908,5.485,5.485,0,0,0,1.96,3.064,4.933,4.933,0,0,0,3.162,1.385,3.443,3.443,0,0,0,2.758-1.265,4.449,4.449,0,0,0,.93-3.256l.111-.03.383.518c.021.018.076.084.167.2a3.892,3.892,0,0,0,.268.3c-.032.093-.068.21-.108.351s-.061.228-.066.261a5.9,5.9,0,0,1-1.22,2.1,5.215,5.215,0,0,1-3.626,1.91,5.108,5.108,0,0,1-3.838-1.391,5.791,5.791,0,0,1-1.566-2.194,4.888,4.888,0,0,1,1.1-5.358,6.259,6.259,0,0,1,1.408-1.17,6.753,6.753,0,0,1,1.381-.619" transform="translate(-3.098 -3.683)" fill="#fff"/>
      <path id="Tracciato_291" data-name="Tracciato 291" d="M29.421,22.085q-.236-.356-.9-1.295-.923-1.373-2.184-3.043-.373-.491-1.156-1.477-.922-1.189-1.986-2.419.4-.268.457-.3.738-.49,1.654-1.185.818-.622,1.978-1.619.112.171.235.332a3.948,3.948,0,0,0,.314.368q-1.21.8-2.115,1.484-.147.111-.4.312c-.168.134-.316.248-.443.346q.536.727,1.115,1.49.652.859,1.167,1.513.3-.208.635-.465.791-.6,1.953-1.651a3.425,3.425,0,0,0,.24.361,3.466,3.466,0,0,0,.289.334q-1.926,1.359-2.1,1.487l-.4.307-.223.17q.611.828,1.331,1.775l.618.814.634.81c.12-.091.261-.2.424-.314s.285-.209.369-.271q.7-.535,2.062-1.69a2.724,2.724,0,0,0,.256.4,1.955,1.955,0,0,0,.283.3q-1.419,1.008-2.111,1.533-.725.552-1.131.877-.781.647-.869.713" transform="translate(-4.729 -2.19)" fill="#fff"/>
    </g>
  </g>
</svg>
