<svg id="Mastercard" xmlns="http://www.w3.org/2000/svg" width="41.276" height="25.529" viewBox="0 0 41.276 25.529">
  <rect id="rect19" width="11.17" height="20.068" transform="translate(15.037 2.731)" fill="#4c303f"/>
  <path id="XMLID_330_" d="M15.78,12.764A12.8,12.8,0,0,1,20.638,2.731a12.76,12.76,0,1,0-7.874,22.8A12.7,12.7,0,0,0,20.638,22.8,12.739,12.739,0,0,1,15.78,12.764Z" fill="#4c303f"/>
  <path id="path22" d="M520.238,12.764A12.752,12.752,0,0,1,499.6,22.8a12.791,12.791,0,0,0,0-20.068,12.752,12.752,0,0,1,20.638,10.034Z" transform="translate(-478.962)" fill="#4c303f"/>
</svg>
