<svg xmlns="http://www.w3.org/2000/svg" width="91.479" height="39.514" viewBox="0 0 91.479 39.514">
  <path id="Msn_logo" data-name="Msn logo" d="M14.751,36.247c0,1.723.6,2.4,1.522,2.4,2.3,0,5.97-5.374,5.831-11.016,3.491-3.683,7.676-9.452,7.676-14.073,0-1.119-.317-2.06-1.643-2.06-2.027,0-4.923,3.493-6.76,6.962-1.772,3.594-3.429,7.693-5.629,13.319a14.394,14.394,0,0,0-1,4.471Zm49.8-7.669v2.9a7.628,7.628,0,0,0,4.235,1.037c4.25,0,6.117-2.371,6.117-4.959,0-5.608-7.551-4.268-7.551-7.989,0-1.4,1.114-2.411,2.983-2.411a7.067,7.067,0,0,1,3.791,1.165v-2.68a8.18,8.18,0,0,0-3.649-.828c-3.634,0-5.9,2.27-5.9,5,0,5.545,7.528,4.46,7.528,8.073,0,1.661-1.365,2.262-3.131,2.262a7.662,7.662,0,0,1-4.424-1.562Zm27.428,3.535h-2.7V22.487q0-5.373-3.923-5.373A4.255,4.255,0,0,0,82,18.638a5.651,5.651,0,0,0-1.327,3.849v9.626h-2.7V15.235h2.7v2.8h.066a6.092,6.092,0,0,1,5.538-3.2,5.164,5.164,0,0,1,4.236,1.788,7.966,7.966,0,0,1,1.467,5.167Zm-30.379,0H58.9V22.421a7.312,7.312,0,0,0-.865-4.055,3.282,3.282,0,0,0-2.909-1.253A3.6,3.6,0,0,0,52.181,18.7a6.053,6.053,0,0,0-1.211,3.791v9.626h-2.7V22.091q0-4.978-3.84-4.978a3.558,3.558,0,0,0-2.934,1.492,6.166,6.166,0,0,0-1.154,3.882v9.626h-2.7V15.235h2.7V17.9H40.4a5.734,5.734,0,0,1,5.241-3.066,4.875,4.875,0,0,1,4.78,3.494,6.023,6.023,0,0,1,5.6-3.494q5.571,0,5.571,6.873Zm-56.825,7.9C2.467,40.014.5,38.565.5,35.281c0-5.069,4.363-8.919,6.342-10.008a40.011,40.011,0,0,0,5.642,2.622A20.63,20.63,0,0,1,3.128,10.4c0-6.826,3.6-9.9,6.856-9.9C12.6.5,18.8,3.379,18.8,14.425c0,11.886-6.2,25.589-14.029,25.589Z" transform="translate(-0.5 -0.5)" fill="#4c303f"/>
</svg>
