<svg id="Raggruppa_409" data-name="Raggruppa 409" xmlns="http://www.w3.org/2000/svg" xmlns:xlink="http://www.w3.org/1999/xlink" width="130.857" height="16.534" viewBox="0 0 130.857 16.534">
  <defs>
    <clipPath id="clip-path">
      <rect id="Rettangolo_316" data-name="Rettangolo 316" width="130.857" height="16.534" fill="#4c303f"/>
    </clipPath>
  </defs>
  <path id="Tracciato_256" data-name="Tracciato 256" d="M11.195,1.9,8.983,9.207,8.178,1.9H4.089L0,17.118H3.083L5.563,8.6,6.5,17.118H9.987L14.345,1.9Z" transform="translate(0 -1.261)" fill="#4c303f"/>
  <path id="Tracciato_257" data-name="Tracciato 257" d="M55.675,9.476,56.412,1.9H52.927l-3.553,7.44.737-7.44H38.38L34.224,17.118H42.2l.939-2.682h-4.49l1.072-3.753H43.81L44.613,8H40.458L41.531,4.65h4.491L45.15,17.118H48.7l4.021-8.58-.871,8.58h3.419L62.645,1.9H59.428Z" transform="translate(-22.694 -1.261)" fill="#4c303f"/>
  <path id="Tracciato_258" data-name="Tracciato 258" d="M132.867,1.9l-3.419,5.43-.335-5.43h-3.687l1.207,8.981-1.676,6.235h3.551l1.743-6.034L136.486,1.9Z" transform="translate(-82.86 -1.261)" fill="#4c303f"/>
  <g id="Raggruppa_408" data-name="Raggruppa 408" transform="translate(0 0)">
    <g id="Raggruppa_407" data-name="Raggruppa 407" clip-path="url(#clip-path)">
      <path id="Tracciato_259" data-name="Tracciato 259" d="M159.278,4.662a9.319,9.319,0,0,0,.367-2.614A2.1,2.1,0,0,0,157.836.2a9.054,9.054,0,0,0-2.145-.2,8.389,8.389,0,0,0-1.475.067,5.768,5.768,0,0,0-1.978.57,4.82,4.82,0,0,0-1.138.737,9.024,9.024,0,0,0-1.542,2.011l-2.681,9.854a3.235,3.235,0,0,0,.134,1.877,2.222,2.222,0,0,0,.871.737,4.411,4.411,0,0,0,2.011.6,6.672,6.672,0,0,0,2.346-.066,6.089,6.089,0,0,0,1.877-.536,5.2,5.2,0,0,0,1.341-.872,7.448,7.448,0,0,0,1.341-1.608s1.407-5.027,1.407-4.96Zm-3.722-.435-.3,1.207s-1.911,6.971-1.945,6.937c-.1-.1-.066.212-.135.335a1.088,1.088,0,0,1-.4.436,1.349,1.349,0,0,1-.8.2,1.173,1.173,0,0,1-.671-.068.719.719,0,0,1-.4-.4,1.322,1.322,0,0,1,.035-.671l2.481-8.513h0a2.059,2.059,0,0,1,.335-.3,1.455,1.455,0,0,1,.5-.2,1.523,1.523,0,0,1,.6-.067.849.849,0,0,1,.637.269.607.607,0,0,1,.167.3,1.149,1.149,0,0,1-.1.536" transform="translate(-97.34 0)" fill="#4c303f"/>
      <path id="Tracciato_260" data-name="Tracciato 260" d="M189.741,10.28a1.268,1.268,0,0,0-.47-.4,3.476,3.476,0,0,0-.6-.268,9.311,9.311,0,0,0,.939-.469,3.425,3.425,0,0,0,.737-.536,4.494,4.494,0,0,0,.335-.4l1.207-4.089a2.736,2.736,0,0,0,0-.871,1.506,1.506,0,0,0-.369-.7,1.841,1.841,0,0,0-.637-.47,4.052,4.052,0,0,0-.4-.167h-8.244l-4.157,15.216h3.62l1.81-6.167h1.608s.49.092.6.335a.9.9,0,0,1,0,.47l-1.407,5.362h3.82l1.61-5.7s.242-.767,0-1.14m-2.313-4.023a4.934,4.934,0,0,1-.3.972,1.7,1.7,0,0,1-.4.7,2.039,2.039,0,0,1-.469.267h-1.911l1.106-3.553h1.441a1.361,1.361,0,0,1,.3,0,.537.537,0,0,1,.3.134c.133.119.106.26.134.436a2.326,2.326,0,0,1-.2,1.039" transform="translate(-118.085 -1.26)" fill="#4c303f"/>
      <path id="Tracciato_261" data-name="Tracciato 261" d="M222.105,1.9l-4.559,5.027L218.955,1.9H215.2L210.71,17.118h3.921l2.045-6.737,1.239,6.737h4.123L220.3,8.671,225.658,1.9Z" transform="translate(-139.724 -1.261)" fill="#4c303f"/>
      <path id="Tracciato_262" data-name="Tracciato 262" d="M269.636,9.841a29.084,29.084,0,0,0,1.542-5.3,2.106,2.106,0,0,0,.066-1.039,3.331,3.331,0,0,0-.134-.737,1.5,1.5,0,0,0-.469-.57,3.445,3.445,0,0,0-.7-.4h-7.875L257.8,17.013h3.553l1.407-4.625a30.129,30.129,0,0,0,3.519,0,4.5,4.5,0,0,0,1.475-.5,3.415,3.415,0,0,0,1.375-1.039,4.546,4.546,0,0,0,.5-1m-2.413-4.356a3.438,3.438,0,0,1-.134.67s-.29,1.2-.57,1.945a2.846,2.846,0,0,1-.335.8,1.554,1.554,0,0,1-.839.636,2.111,2.111,0,0,1-.737.1,1.769,1.769,0,0,1-.6-.035,2.135,2.135,0,0,1-.37-.167L264.942,4.9l.1-.355a3.216,3.216,0,0,1,1.742,0,.87.87,0,0,1,.37.235c.172.215.076.428.066.7" transform="translate(-170.953 -1.191)" fill="#4c303f"/>
      <path id="Tracciato_263" data-name="Tracciato 263" d="M303.368,4.758a6.562,6.562,0,0,0,.27-2.212c-.112-.461-.135-.9-.5-1.106a5.277,5.277,0,0,0-1.24-.67,5.483,5.483,0,0,0-1.877-.3A7.565,7.565,0,0,0,297.941.6a6.551,6.551,0,0,0-1.508.435,5.428,5.428,0,0,0-1.676,1.006,8.951,8.951,0,0,0-.972,1.072L290.8,13.438a3.786,3.786,0,0,0,.3,1.945,2.41,2.41,0,0,0,.872.771,4.287,4.287,0,0,0,2.01.57,6.909,6.909,0,0,0,2.346-.034,5.826,5.826,0,0,0,1.876-.536,4.76,4.76,0,0,0,1.342-.9,6.8,6.8,0,0,0,1.205-1.609s1.475-4.926,1.475-4.86Zm-3.719-.235-.3,1.207s-1.911,6.972-1.944,6.937c-.1-.1-.1.536-.536.771a2.346,2.346,0,0,1-.8.3,2.107,2.107,0,0,1-1.006-.167c-.5-.235-.3-1.138-.3-1.138L297.1,4.389s.269-.6.536-.737a1.826,1.826,0,0,1,1.207-.268c.277.046.6.135.67.268a.877.877,0,0,1,.134.871" transform="translate(-192.822 -0.299)" fill="#4c303f"/>
      <path id="Tracciato_264" data-name="Tracciato 264" d="M359.363,1.8l-.7,2.614h2.38l-3.553,12.6h3.519l3.553-12.468H367.1l.8-2.748Z" transform="translate(-237.052 -1.191)" fill="#4c303f"/>
      <path id="Tracciato_265" data-name="Tracciato 265" d="M333.015,8.749a8.958,8.958,0,0,0-1.14-1.273c-.485-.52-.81-.767-1.273-1.307a3.462,3.462,0,0,1-.771-.972,1.666,1.666,0,0,1-.2-1.039.931.931,0,0,1,.235-.57.914.914,0,0,1,.5-.235,1.228,1.228,0,0,1,.57-.066.927.927,0,0,1,.6.3.863.863,0,0,1,.268.469,1.637,1.637,0,0,1-.035.637,4.192,4.192,0,0,1-.1.67,5.85,5.85,0,0,1-.2.6h3.558s.242-.854.369-1.407a5.451,5.451,0,0,0,.267-1.341,2.407,2.407,0,0,0-.3-1.508,2.127,2.127,0,0,0-.771-.737,3.134,3.134,0,0,0-1.039-.4A5.734,5.734,0,0,0,332.348.4a6.159,6.159,0,0,0-1.575,0c-.346.05-.531.123-.872.2a7,7,0,0,0-1.072.235,4.421,4.421,0,0,0-1.106.636,5.4,5.4,0,0,0-.871.7,3.232,3.232,0,0,0-.671.8,3.79,3.79,0,0,0-.336.9,5.292,5.292,0,0,0-.2.871,2.95,2.95,0,0,0-.035,1.107,2.962,2.962,0,0,0,.3.8,7.883,7.883,0,0,0,1.072,1.542c.317.425.5.665.839,1.072.326.39.547.58.871.972a4.648,4.648,0,0,1,.5.636,2.015,2.015,0,0,1,.335.771,1.623,1.623,0,0,1-.034.839,1.2,1.2,0,0,1-.3.6,1.128,1.128,0,0,1-.737.37,1.164,1.164,0,0,1-.838-.135.932.932,0,0,1-.436-.4,1.091,1.091,0,0,1-.1-.6,2.593,2.593,0,0,1,.134-.671c.058-.249.167-.636.167-.636H323.7s-.134.322-.2.536a7.688,7.688,0,0,0-.2.871,5.107,5.107,0,0,0-.235,1.307,2.625,2.625,0,0,0,.235,1.14,2.18,2.18,0,0,0,.536.8,2.6,2.6,0,0,0,.8.5,4.525,4.525,0,0,0,1.541.436,6.419,6.419,0,0,0,1.811,0,6.75,6.75,0,0,0,1.943-.4,5.981,5.981,0,0,0,1.341-.671,4.957,4.957,0,0,0,1.14-.9,4.172,4.172,0,0,0,.838-1.24,4.547,4.547,0,0,0,.436-1.508,4.045,4.045,0,0,0-.034-1.877,3.818,3.818,0,0,0-.636-1.273" transform="translate(-214.224 -0.233)" fill="#4c303f"/>
    </g>
  </g>
</svg>
