<svg xmlns="http://www.w3.org/2000/svg" width="164.191" height="21.583" viewBox="0 0 164.191 21.583">
  <path id="NewYorkTimes_1_" data-name="NewYorkTimes (1)" d="M12.308,2.63C12.308.846,10.613.4,9.275.4V.668c.8,0,1.427.268,1.427.892a.944.944,0,0,1-1.07.892,11.557,11.557,0,0,1-2.943-.713,9.48,9.48,0,0,0-3.121-.8A2.917,2.917,0,0,0,.535,3.789,2.067,2.067,0,0,0,1.873,5.751l.089-.178a1.069,1.069,0,0,1-.446-.892A1.129,1.129,0,0,1,2.765,3.7a13.178,13.178,0,0,1,3.3.8,25.2,25.2,0,0,0,3.3.713V7.981L8.027,9.14v.089l1.338,1.159v3.835a4.119,4.119,0,0,1-2.23.535,4.4,4.4,0,0,1-3.478-1.427l3.657-1.784V5.394L2.854,7.356a4.553,4.553,0,0,1,2.319-2.5l-.089-.268A6.768,6.768,0,0,0,0,10.835a6.26,6.26,0,0,0,6.243,6.243,5.8,5.8,0,0,0,5.886-5.8h-.178a5.973,5.973,0,0,1-2.319,2.765V10.389l1.427-1.159V9.14L9.632,7.981V5.216A2.549,2.549,0,0,0,12.308,2.63ZM4.548,12.44l-1.07.535A5.291,5.291,0,0,1,2.5,9.586a6.372,6.372,0,0,1,.178-1.873l1.873-.8ZM14,14.491l-1.159.892.178.178.535-.446L15.518,16.9l2.676-1.784-.089-.178-.713.446-.892-.892V8.427l.713-.535L18.729,9.14v5.44c0,3.389-.713,3.924-2.23,4.459v.268c2.5.089,4.816-.713,4.816-5.084V8.337l.8-.624-.178-.178-.713.535L19,6.2,16.5,8.07V.757h-.178L13.2,2.9v.178a1.257,1.257,0,0,1,.892,1.338L14,14.491Zm16.321-.981L28.093,15.2l-2.23-1.784v-1.07L30.056,9.5V9.408L27.915,6.2l-4.638,2.5V14.58l-.892.713.178.178.8-.624,3.032,2.23,4.013-3.211-.089-.357Zm-4.459-1.516V7.624l.178-.089L28,10.656l-2.14,1.338ZM47.358,1.827a2.6,2.6,0,0,0-.178-.8H47a1.393,1.393,0,0,1-1.516,1.07,2.358,2.358,0,0,1-1.695-.8L41.2,4.235l.178.178.892-.8A3.254,3.254,0,0,0,44.5,4.5v7.4L39.242,2.9A2.808,2.808,0,0,0,36.923,1.2a2.679,2.679,0,0,0-2.5,3.211h.268c.089-.535.357-1.159.981-1.159.446,0,.892.446,1.159.892V7.089c-1.605,0-2.676.713-2.676,2.051a2.041,2.041,0,0,0,1.427,2.051v-.178a.81.81,0,0,1-.268-.624c0-.446.357-.8.981-.8h.446v3.746c-1.873,0-3.389,1.07-3.389,2.854,0,1.695,1.427,2.5,3.032,2.408v-.178c-.981-.089-1.427-.535-1.427-1.159A1.1,1.1,0,0,1,36.209,16.1a2.423,2.423,0,0,1,1.784.981l2.586-2.854-.178-.178-.624.713A4.283,4.283,0,0,0,37.1,13.421V4.5l7.135,12.486h.535V4.5a2.728,2.728,0,0,0,2.586-2.676ZM53.868,13.51,51.639,15.2l-2.23-1.784v-1.07L53.6,9.5V9.408L51.46,6.2l-4.638,2.5V14.58l-.892.713.178.178.8-.624,3.032,2.23,4.013-3.211-.089-.357Zm-4.459-1.516V7.624l.178-.089,1.962,3.121-2.14,1.338Zm19-4.816-.624.446L66.087,6.2,64.125,7.981l.8.8v6.689l-2.14-1.338V8.6l.713-.446L61.449,6.2,59.487,7.981l.8.8V15.2l-.268.178-1.873-1.338V8.694a2.112,2.112,0,0,0-1.338-2.051c-.624-.446-.981-.713-.981-1.338,0-.535.535-.8.8-.981V4.146c-.713,0-2.586.713-2.586,2.408a2.133,2.133,0,0,0,.892,1.695,2.1,2.1,0,0,1,.892,1.605v5.173l-.981.713.178.178.892-.713,2.051,1.784,2.23-1.516,2.5,1.516,4.727-2.765V8.248l1.159-.892-.178-.178ZM84.994,2.273l-.892.8L82.14,1.292,79.2,3.432V1.47h-.268l.089,14.448a9.636,9.636,0,0,1-1.695-.357l-.178-12.04a2.122,2.122,0,0,0-2.23-2.14,2.593,2.593,0,0,0-2.676,2.5h.268c.089-.535.357-.981.892-.981s.981.357.981,1.516V7.892c-1.605.089-2.586.981-2.586,2.14,0,.713.357,1.784,1.427,1.784v-.178a.707.707,0,0,1-.446-.624c0-.535.446-.713,1.159-.713h.357v5.529a2.51,2.51,0,0,0-1.873,2.5,2.637,2.637,0,0,0,2.943,2.586,13.54,13.54,0,0,0,3.389-.446,19.723,19.723,0,0,1,2.586-.446c.713,0,.981.357.981.8,0,.624-.268.892-.624.981v.178a2.512,2.512,0,0,0,2.319-2.5c0-1.338-1.338-2.14-2.765-2.14a28.47,28.47,0,0,0-3.3.446,20.725,20.725,0,0,1-2.854.446c-.624,0-1.338-.268-1.338-1.159,0-.713.624-1.338,2.14-1.338a10.692,10.692,0,0,1,2.765.357,12.9,12.9,0,0,0,2.943.535c1.338,0,2.5-.446,2.5-2.319V3.343l1.07-.892-.178-.178Zm-3.657,5.44a1.555,1.555,0,0,1-1.07.535,1.39,1.39,0,0,1-1.07-.535V3.789l.892-.624,1.249,1.159Zm0,2.676a1.507,1.507,0,0,0-2.14,0V8.07a1.507,1.507,0,0,0,2.14,0Zm0,4.192a1.354,1.354,0,0,1-1.427,1.427H79.2V10.745a1.7,1.7,0,0,1,1.07-.446,1.958,1.958,0,0,1,1.07.446V14.58ZM93.556,8.248,90.7,6.2l-4.37,2.5v5.8l-.892.713.089.178.713-.535,2.854,2.14,4.459-2.676ZM88.74,13.867V7.446l2.23,1.605v6.332l-2.23-1.516Zm13.289-7.491h-.178a1.6,1.6,0,0,1-.8.357,1.278,1.278,0,0,1-.981-.446h-.178L98.372,7.981,96.856,6.286,94.18,8.07l.089.178.713-.446.892.981V14.4l-1.159.892.178.178.535-.446,2.14,1.784,2.765-1.873-.089-.178-.8.446-1.07-.892V8.07a2.448,2.448,0,0,0,1.605.892c1.249.089,1.962-1.159,2.051-2.586Zm10.7,8.562L109.7,16.988l-4.1-6.243L108.539,6.2h.178a2.222,2.222,0,0,0,1.516.713,1.671,1.671,0,0,0,1.338-.713h.178a2.782,2.782,0,0,1-2.23,2.854,3.6,3.6,0,0,1-1.873-.713l-.268.446,4.459,6.6.892-.535Zm-9.81-.446-1.159.892.178.178.535-.446,1.962,1.784,2.676-1.784-.178-.178-.713.446-.892-.892V.757h-.089L102.028,2.9v.178a1.185,1.185,0,0,1,.892,1.338ZM127.536,2.63C127.536.846,125.841.4,124.5.4V.668c.8,0,1.427.268,1.427.892a.944.944,0,0,1-1.07.892,11.557,11.557,0,0,1-2.943-.713,11.84,11.84,0,0,0-3.121-.713,2.917,2.917,0,0,0-3.032,2.854A2.067,2.067,0,0,0,117.1,5.84l.089-.178a.94.94,0,0,1-.535-.892,1.129,1.129,0,0,1,1.249-.981,13.178,13.178,0,0,1,3.3.8,25.2,25.2,0,0,0,3.3.713V8.07l-1.338,1.159v.089l1.338,1.159v3.835a4.119,4.119,0,0,1-2.23.535,4.4,4.4,0,0,1-3.478-1.427l3.657-1.784V5.394l-4.459,1.962a5.962,5.962,0,0,1,2.319-2.586l-.089-.178a6.663,6.663,0,0,0-5.084,6.154,6.26,6.26,0,0,0,6.243,6.243,5.8,5.8,0,0,0,5.886-5.8h-.178a5.973,5.973,0,0,1-2.319,2.765V10.3L126.2,9.14V9.051L124.86,7.892V5.216A2.549,2.549,0,0,0,127.536,2.63Zm-7.759,9.81-1.07.535a5.291,5.291,0,0,1-.981-3.389,6.338,6.338,0,0,1,.268-1.873l1.873-.8Zm10.881-10.7h-.089l-1.784,1.516v.089L130.3,5.038h.178l1.784-1.516V3.432l-1.605-1.695Zm2.676,13.2-.714.446-.892-.892V8.337l.892-.624-.178-.178-.624.535L130.211,6.2l-2.586,1.784.178.268.624-.446.8.981v5.8l-1.159.892.089.178.624-.446,1.962,1.784,2.676-1.784-.089-.268Zm14.894-.089-.624.446-.981-.892V8.337l.892-.713-.178-.178-.714.624L144.57,6.2,141.894,8.07,139.843,6.2l-2.5,1.873L135.741,6.2l-2.586,1.784.089.268.624-.446.892.981v5.8l-.713.713,2.051,1.695,1.962-1.784-.8-.8V8.337l.8-.535L139.4,9.051V14.4l-.714.713,2.051,1.695,1.962-1.784-.8-.8V8.337l.713-.446,1.427,1.249v5.351l-.624.624,2.051,1.873,2.765-1.873v-.268Zm7.759-1.338-2.23,1.695-2.23-1.784v-1.07L155.718,9.5V9.408L153.578,6.2l-4.638,2.5v6.065l3.121,2.23,4.013-3.211Zm-4.459-1.516V7.624l.178-.089,1.962,3.121-2.14,1.338Zm12.575-.8-1.694-1.338a4.433,4.433,0,0,0,1.605-3.211V6.108h-.178A1.284,1.284,0,0,1,162.586,7a1.993,1.993,0,0,1-1.605-.892l-4.013,2.23v3.211l1.516,1.159c-1.516,1.338-1.784,2.23-1.784,2.943a1.781,1.781,0,0,0,1.159,1.784l.089-.178a.8.8,0,0,1-.357-.713c0-.268.357-.713,1.07-.713a2.356,2.356,0,0,1,1.695.892l3.835-2.319V11.191Zm-.981-2.676a9.775,9.775,0,0,1-2.765,2.676l-.981-.8V7.267a2.64,2.64,0,0,0,2.319,1.605A2.431,2.431,0,0,0,163.121,8.516ZM161.6,15.651a2.959,2.959,0,0,0-2.586-1.695,3.112,3.112,0,0,0-1.695.446,9.951,9.951,0,0,1,3.121-2.854l1.07.892.089,3.211Z" transform="translate(0 -0.4)" fill="#4c303f"/>
</svg>
