<svg id="PayPal" xmlns="http://www.w3.org/2000/svg" width="70.181" height="18.9" viewBox="0 0 70.181 18.9">
  <path id="Tracciato_118" data-name="Tracciato 118" d="M-835.312,39.734a.414.414,0,0,0-.409.35l-2.361,14.971a.383.383,0,0,0,.087.309.383.383,0,0,0,.291.134h2.8a.414.414,0,0,0,.409-.35l.693-4.4a.414.414,0,0,1,.409-.35h2.545a6.037,6.037,0,0,0,5.96-5.11,4.9,4.9,0,0,0-5.135-5.557Zm2.721,3.342h2.036c1.677,0,2.223.989,2.05,2.083s-1.021,1.9-2.642,1.9h-2.073Zm13.4,1.018a6.367,6.367,0,0,0-2.433.528,6.358,6.358,0,0,0-3.528,3.993s-1.36,4.014,1.712,6.219a5.245,5.245,0,0,0,6.056-.131l-.055.352a.383.383,0,0,0,.087.308.383.383,0,0,0,.291.134h2.658a.414.414,0,0,0,.409-.35l1.617-10.252a.383.383,0,0,0-.087-.309.383.383,0,0,0-.291-.135h-2.658a.414.414,0,0,0-.409.35l-.087.552a4.615,4.615,0,0,0-3.282-1.26Zm.087,3.238a2.723,2.723,0,0,1,.835.123,2.351,2.351,0,0,1,1.609,2.664,2.977,2.977,0,0,1-2.984,2.553,2.726,2.726,0,0,1-.835-.122,2.354,2.354,0,0,1-1.612-2.664,2.981,2.981,0,0,1,2.988-2.553Z" transform="translate(838.086 -39.734)" fill="#4c303f"/>
  <path id="Tracciato_119" data-name="Tracciato 119" d="M-704.511,39.734a.414.414,0,0,0-.409.35l-2.361,14.971a.383.383,0,0,0,.087.309.383.383,0,0,0,.291.134h2.8a.414.414,0,0,0,.409-.35l.693-4.4a.414.414,0,0,1,.409-.35h2.545a6.036,6.036,0,0,0,5.959-5.11,4.9,4.9,0,0,0-5.134-5.557Zm2.721,3.342h2.036c1.677,0,2.223.989,2.05,2.083s-1.02,1.9-2.642,1.9h-2.073Zm13.4,1.018a6.368,6.368,0,0,0-2.434.528,6.358,6.358,0,0,0-3.528,3.993s-1.359,4.014,1.713,6.219a5.244,5.244,0,0,0,6.056-.131l-.055.352a.383.383,0,0,0,.087.309.383.383,0,0,0,.291.134h2.657a.414.414,0,0,0,.409-.35l1.617-10.252a.383.383,0,0,0-.087-.309.383.383,0,0,0-.291-.134h-2.658a.414.414,0,0,0-.409.35l-.087.552a4.615,4.615,0,0,0-3.282-1.26Zm.087,3.238a2.722,2.722,0,0,1,.835.123,2.351,2.351,0,0,1,1.609,2.664,2.977,2.977,0,0,1-2.984,2.553,2.726,2.726,0,0,1-.835-.122,2.354,2.354,0,0,1-1.613-2.664,2.981,2.981,0,0,1,2.988-2.553Z" transform="translate(745.558 -39.734)" fill="#4c303f"/>
  <path id="Tracciato_120" data-name="Tracciato 120" d="M-746.672,55.858a.311.311,0,0,0-.3.406l2.914,9.041-2.635,4.261a.311.311,0,0,0,.264.474h3.114a.518.518,0,0,0,.443-.25l8.138-13.461a.311.311,0,0,0-.266-.471h-3.114a.518.518,0,0,0-.445.254l-3.2,5.408-1.626-5.368a.415.415,0,0,0-.4-.294Z" transform="translate(773.64 -51.14)" fill="#4c303f"/>
  <path id="Tracciato_121" data-name="Tracciato 121" d="M-615.816,39.734a.414.414,0,0,0-.409.35l-2.361,14.97a.383.383,0,0,0,.087.309.383.383,0,0,0,.292.134h2.8a.414.414,0,0,0,.409-.35l2.361-14.971a.383.383,0,0,0-.087-.308.383.383,0,0,0-.291-.134Z" transform="translate(682.815 -39.734)" fill="#4c303f"/>
</svg>
